<svg xmlns="http://www.w3.org/2000/svg" viewBox="0 0 32 32">
  <ellipse cx="25" cy="16" rx="4.2" ry="2.4" fill="#fbbf24" transform="rotate(0 25 16)"/>
  <ellipse cx="23.28" cy="21.29" rx="4.2" ry="2.4" fill="#fbbf24" transform="rotate(36 23.28 21.29)"/>
  <ellipse cx="18.78" cy="24.56" rx="4.2" ry="2.4" fill="#fbbf24" transform="rotate(72 18.78 24.56)"/>
  <ellipse cx="13.22" cy="24.56" rx="4.2" ry="2.4" fill="#fbbf24" transform="rotate(108 13.22 24.56)"/>
  <ellipse cx="8.72" cy="21.29" rx="4.2" ry="2.4" fill="#fbbf24" transform="rotate(144 8.72 21.29)"/>
  <ellipse cx="7" cy="16" rx="4.2" ry="2.4" fill="#fbbf24" transform="rotate(180 7 16)"/>
  <ellipse cx="8.72" cy="10.71" rx="4.2" ry="2.4" fill="#fbbf24" transform="rotate(216 8.72 10.71)"/>
  <ellipse cx="13.22" cy="7.44" rx="4.2" ry="2.4" fill="#fbbf24" transform="rotate(252 13.22 7.44)"/>
  <ellipse cx="18.78" cy="7.44" rx="4.2" ry="2.4" fill="#fbbf24" transform="rotate(288 18.78 7.44)"/>
  <ellipse cx="23.28" cy="10.71" rx="4.2" ry="2.4" fill="#fbbf24" transform="rotate(324 23.28 10.71)"/>
  <circle cx="16" cy="16" r="5.5" fill="#92400e"/>
</svg>
